<svg width="100%" height="200" viewBox="0 0 680 200" xmlns="http://www.w3.org/2000/svg">
<defs>
<linearGradient id="bg" x1="0" y1="0" x2="680" y2="200">
<stop offset="0%" stop-color="#0a0e17"/>
<stop offset="100%" stop-color="#0d1320"/>
</linearGradient>
<linearGradient id="glow1" x1="0" y1="0" x2="1" y2="0">
<stop offset="0%" stop-color="#00f0ff" stop-opacity="0.9"/>
<stop offset="100%" stop-color="#00f0ff" stop-opacity="0"/>
</linearGradient>
<linearGradient id="glow2" x1="0" y1="0" x2="1" y2="0">
<stop offset="0%" stop-color="#ff00aa" stop-opacity="0.9"/>
<stop offset="100%" stop-color="#ff00aa" stop-opacity="0"/>
</linearGradient>
</defs>
<rect width="680" height="200" fill="url(#bg)"/>
<g opacity="0.18" stroke="#00f0ff" stroke-width="0.5">
<line x1="0" y1="20" x2="680" y2="20"/>
<line x1="0" y1="40" x2="680" y2="40"/>
<line x1="0" y1="60" x2="680" y2="60"/>
<line x1="0" y1="80" x2="680" y2="80"/>
<line x1="0" y1="100" x2="680" y2="100"/>
<line x1="0" y1="120" x2="680" y2="120"/>
<line x1="0" y1="140" x2="680" y2="140"/>
<line x1="0" y1="160" x2="680" y2="160"/>
<line x1="0" y1="180" x2="680" y2="180"/>
<line x1="60" y1="0" x2="60" y2="200"/>
<line x1="140" y1="0" x2="140" y2="200"/>
<line x1="220" y1="0" x2="220" y2="200"/>
<line x1="300" y1="0" x2="300" y2="200"/>
<line x1="380" y1="0" x2="380" y2="200"/>
<line x1="460" y1="0" x2="460" y2="200"/>
<line x1="540" y1="0" x2="540" y2="200"/>
<line x1="620" y1="0" x2="620" y2="200"/>
</g>
<rect x="0" y="0" width="6" height="200" fill="#00f0ff"/>
<rect x="0" y="0" width="200" height="3" fill="url(#glow1)"/>
<rect x="0" y="197" width="200" height="3" fill="url(#glow2)"/>
<text x="40" y="78" font-family="Verdana, Geneva, sans-serif" font-size="40" font-weight="700" fill="#e8f7ff" letter-spacing="2">VEERA2006</text>
<text x="42" y="80" font-family="Verdana, Geneva, sans-serif" font-size="40" font-weight="700" fill="#00f0ff" letter-spacing="2" opacity="0.25">VEERA2006</text>
<line x1="40" y1="98" x2="430" y2="98" stroke="#ff00aa" stroke-width="2"/>
<line x1="40" y1="98" x2="430" y2="98" stroke="#00f0ff" stroke-width="0.5" opacity="0.6"/>
<text x="40" y="130" font-family="Verdana, Geneva, sans-serif" font-size="16" font-weight="400" fill="#9fe8ff" letter-spacing="1">// ENGINEER . BUILDER . AI &amp; BLOCKCHAIN</text>
<text x="40" y="158" font-family="Verdana, Geneva, sans-serif" font-size="13" font-weight="400" fill="#5f7d8c">2nd-year engineering student shipping fintech, AI, and Web3 prototypes</text>
<g transform="translate(560,30)">
<rect x="0" y="0" width="90" height="90" fill="none" stroke="#00f0ff" stroke-width="1" opacity="0.5"/>
<rect x="10" y="10" width="70" height="70" fill="none" stroke="#ff00aa" stroke-width="1" opacity="0.5"/>
<circle cx="45" cy="45" r="25" fill="none" stroke="#00f0ff" stroke-width="1.5"/>
<line x1="45" y1="0" x2="45" y2="90" stroke="#00f0ff" stroke-width="0.5" opacity="0.4"/>
<line x1="0" y1="45" x2="90" y2="45" stroke="#00f0ff" stroke-width="0.5" opacity="0.4"/>
<circle cx="45" cy="45" r="4" fill="#ff00aa"/>
</g>
</svg>
